<?xml version="1.0" encoding="UTF-8" standalone="no"?>
<!DOCTYPE svg PUBLIC "-//W3C//DTD SVG 1.1//EN" "http://www.w3.org/Graphics/SVG/1.1/DTD/svg11.dtd">
<svg xmlns="http://www.w3.org/2000/svg" version="1.1" viewBox="0.00 0.00 24.00 24.00" width="24.00" height="24.00">
<path fill="#5d5d5e" d="
  M 21.74 13.66
  C 16.12 20.68 7.96 20.54 2.29 13.74
  C 1.38 12.64 1.44 11.02 2.44 10.00
  C 8.92 3.37 15.28 3.38 21.52 10.03
  C 22.65 11.22 22.72 12.43 21.74 13.66
  Z
  M 4.04 12.89
  C 9.47 18.32 14.71 18.31 20.04 12.78
  C 20.45 12.35 20.45 11.67 20.04 11.24
  C 14.75 5.65 9.47 5.72 4.05 11.12
  C 3.56 11.61 3.55 12.40 4.04 12.89
  Z"
/>
<path fill="#5d5d5e" d="
  M 14.96 12.00
  C 14.96 13.63 13.63 14.96 12.00 14.96
  C 10.37 14.96 9.04 13.63 9.04 12.00
  C 9.04 10.37 10.37 9.04 12.00 9.04
  C 13.63 9.04 14.96 10.37 14.96 12.00
  Z
  M 13.06 12.01
  C 13.06 11.42 12.58 10.94 11.99 10.94
  C 11.40 10.94 10.92 11.42 10.92 12.01
  C 10.92 12.60 11.40 13.08 11.99 13.08
  C 12.58 13.08 13.06 12.60 13.06 12.01
  Z"
/>
</svg>
